<?xml version="1.0" encoding="UTF-8" standalone="no"?>
<svg xmlns="http://www.w3.org/2000/svg" version="1.1" width="64" height="64">
  <title>SDCC Logo</title>
  <defs>
    <linearGradient x1="0" y2="1" id="lg1">
      <stop stop-color="#404040" offset="0" />
      <stop stop-color="#ffffff" offset="1" />
    </linearGradient>
    <linearGradient x1="0" y1="0" x2="1" y2="1" id="lg2">
      <stop stop-color="#cccccc" offset="0" />
      <stop stop-color="#eeeeee" offset="0.45" />
      <stop stop-color="#383838" offset="0.55" />
      <stop stop-color="#8c8c8c" offset="1" />
    </linearGradient>
    <linearGradient x2="0" y2="1" id="lg3">
      <stop stop-color="#b0b0b0" offset="0" />
      <stop stop-color="#bebebe" offset="0.25" />
      <stop stop-color="#ffffff" offset="0.35" />
      <stop stop-color="#e0e0e0" offset="0.45" />
      <stop stop-color="#ffffff" offset="0.55" />
      <stop stop-color="#c0c0c0" offset="0.66" />
      <stop stop-color="#c8c8c8" offset="1" />
    </linearGradient>
    <linearGradient x2="0" y2="1" id="lg4">
      <stop stop-color="#808080" offset="0" />
      <stop stop-color="#f0f0f0" offset="0.33" />
      <stop stop-color="#383838" offset="0.5" />
      <stop stop-color="#e0e0e0" offset="0.66" />
      <stop stop-color="#bebebe" offset="1" />
    </linearGradient>
    <linearGradient x1="0" x2="1" id="lg5">
      <stop stop-color="#bebebe" offset="0" />
      <stop stop-color="#ffffff" offset="0.2" />
      <stop stop-color="#585858" offset="0.8" />
      <stop stop-color="#8c8c8c" offset="1" />
    </linearGradient>
    <linearGradient x1="0" x2="1" id="lg6">
      <stop stop-color="#bebebe" offset="0" />
      <stop stop-color="#ffffff" offset="0.2" />
      <stop stop-color="#383838" offset="0.8" />
      <stop stop-color="#8c8c8c" offset="1" />
    </linearGradient>
    <radialGradient r="0.85" id="rg1">
      <stop stop-color="#808080" offset="0" />
      <stop stop-color="#b0b0b0" offset="1" />
    </radialGradient>
    <radialGradient id="rg2">
      <stop stop-color="#000000" stop-opacity="0.5" offset="0" />
      <stop stop-color="#000000" stop-opacity="0" offset="1" />
    </radialGradient>
    <path id="SDCC" d="m 18.640625,21.703125 -0.484375,2.46875 q -0.882813,-0.4375 -1.742188,-0.648438 -0.859374,-0.21875 -1.679687,-0.21875 -1.125,0 -1.757812,0.351563 -0.625,0.351562 -0.625,0.976562 0,0.398438 0.273437,0.625 0.28125,0.21875 1.148438,0.429688 l 1.234375,0.304687 Q 16.554687,26.382812 17.273437,27.125 18,27.859375 18,29.03125 q 0,1.898437 -1.445313,3.046875 -1.437499,1.148437 -3.867187,1.148437 -1.132812,0 -2.257812,-0.210937 -1.117188,-0.210938 -2.1875005,-0.625 L 8.71875,29.851562 q 1.0390625,0.601563 2.015625,0.898438 0.984375,0.296875 1.9375,0.296875 1.03125,0 1.671875,-0.421875 0.648438,-0.421875 0.648438,-1.078125 0,-0.429688 -0.289063,-0.664063 Q 14.414063,28.640625 13.4375,28.390625 L 12.210938,28.085937 Q 10.851563,27.75 10.1875,27.023437 9.5234375,26.296875 9.5234375,25.140625 q 0,-1.820313 1.3906255,-2.914063 Q 12.3125,21.125 14.671875,21.125 q 0.945313,0 1.9375,0.148437 1,0.140625 2.03125,0.429688 z m 6.070312,1.90625 -1.398437,7.117187 h 1.078125 q 2.101562,0 3.328125,-1.179687 1.226562,-1.179688 1.226562,-3.1875 0,-1.359375 -0.804687,-2.054688 -0.796875,-0.695312 -2.375,-0.695312 z m -2.578125,-2.273438 h 3.164063 q 2.265625,0 3.398437,0.273438 1.132813,0.265625 1.882813,0.898437 0.757812,0.632813 1.140625,1.539063 0.382812,0.898437 0.382812,2.039062 0,1.585938 -0.65625,2.992188 -0.648437,1.398437 -1.828125,2.351562 -1.03125,0.851563 -2.398437,1.210938 Q 25.859375,33 23.03125,33 H 19.859375 Z M 42.5,32.453125 q -1.078125,0.382812 -2.070313,0.578125 -0.992187,0.195312 -1.882812,0.195312 -2.351563,0 -3.757813,-1.289062 -1.40625,-1.289063 -1.40625,-3.414063 0,-1.398437 0.445313,-2.632812 0.445312,-1.242188 1.3125,-2.265625 1.023437,-1.203125 2.460937,-1.851563 1.445313,-0.648437 3.109375,-0.648437 0.90625,0 1.820313,0.21875 0.914062,0.210937 1.859375,0.648437 L 43.90625,24.40625 q -0.75,-0.570313 -1.507813,-0.835938 -0.757812,-0.265625 -1.625,-0.265625 -1.804687,0 -3.023437,1.390625 -1.21875,1.390625 -1.21875,3.476563 0,1.34375 0.75,2.109375 0.75,0.765625 2.070312,0.765625 0.789063,0 1.671875,-0.28125 0.890625,-0.289063 1.992188,-0.898438 z m 11.742187,0 q -1.078125,0.382812 -2.070312,0.578125 -0.992188,0.195312 -1.882813,0.195312 -2.351562,0 -3.757812,-1.289062 -1.40625,-1.289063 -1.40625,-3.414063 0,-1.398437 0.445312,-2.632812 0.445313,-1.242188 1.3125,-2.265625 1.023438,-1.203125 2.460938,-1.851563 1.445312,-0.648437 3.109375,-0.648437 0.90625,0 1.820312,0.21875 0.914063,0.210937 1.859375,0.648437 l -0.484375,2.414063 q -0.75,-0.570313 -1.507812,-0.835938 -0.757813,-0.265625 -1.625,-0.265625 -1.804688,0 -3.023438,1.390625 -1.21875,1.390625 -1.21875,3.476563 0,1.34375 0.75,2.109375 0.75,0.765625 2.070313,0.765625 0.789062,0 1.671875,-0.28125 0.890625,-0.289063 1.992187,-0.898438 z" />
    <path id="SmallDevice" d="m 13.602666,39.28 q 0,-0.112 0.07467,-0.191999 0.08,-0.08 0.192,-0.08 0.112,0 0.192,0.08 0.08,0.08 0.08,0.191999 0,0.07467 0.05333,0.128 0.05333,0.05333 0.128,0.05333 h 1.327999 q 0.06933,0 0.06933,-0.06933 L 13.72533,36.821335 q -0.122667,-0.170666 -0.122667,-0.373333 v -0.016 q 0,-0.24 0.176,-0.416 0.181333,-0.176 0.426667,-0.176 h 1.327999 q 0.293333,0 0.506666,0.213334 0.218667,0.213333 0.218667,0.506666 0,0.112 -0.08,0.192 -0.08,0.08 -0.192,0.08 -0.112,0 -0.192,-0.08 -0.07467,-0.08 -0.07467,-0.192 0,-0.06933 -0.05867,-0.122667 -0.05333,-0.05867 -0.128,-0.05867 h -1.327999 q -0.064,0 -0.064,0.05333 v 0.016 0.02133 l 1.983998,2.549332 q 0.133334,0.16 0.133334,0.373333 -0.01067,0.250667 -0.186667,0.432 Q 15.901332,40 15.650665,40 H 14.322666 Q 14.029333,40 13.816,39.786667 13.602666,39.573334 13.602666,39.28 Z m 3.813329,0.448 v -2.485332 q 0,-0.112 0.07467,-0.192 0.08,-0.08 0.192,-0.08 0.08533,0 0.154666,0.05333 0.07467,0.05333 0.101333,0.133333 0.218667,-0.186667 0.458667,-0.186667 0.325333,0 0.517333,0.256 l 0.117333,-0.096 q 0.176,-0.144 0.4,-0.144 0.250666,0 0.442666,0.176 0.192,0.176 0.197333,0.426667 l 0.08,2.138665 q 0,0.112 -0.08,0.192 -0.07467,0.08 -0.186666,0.08 -0.106667,0 -0.186667,-0.07467 -0.08,-0.08 -0.08533,-0.186666 l -0.07467,-2.127999 q -0.01067,-0.101333 -0.09067,-0.101333 h -0.032 l -0.362667,0.309333 V 39.728 q 0,0.112 -0.08,0.192 -0.08,0.08 -0.186666,0.08 -0.112,0 -0.192,-0.08 -0.08,-0.08 -0.08,-0.192 v -2.101332 q 0,-0.117333 -0.117333,-0.117333 h -0.04267 l -0.4,0.346666 V 39.728 q 0,0.112 -0.08,0.192 -0.08,0.08 -0.191999,0.08 -0.112,0 -0.192,-0.08 -0.07467,-0.08 -0.07467,-0.192 z M 21.314657,39.2 v -0.298666 q 0,-0.330666 0.234667,-0.565333 0.234666,-0.234667 0.559999,-0.234667 h 1.029333 q 0.128,0 0.234667,0.03733 0,-0.03733 -0.0053,-0.122667 0,-0.09067 -0.0053,-0.128 0,-0.04267 -0.01067,-0.117333 -0.0053,-0.07467 -0.02133,-0.106667 -0.016,-0.03733 -0.048,-0.08 -0.02667,-0.04267 -0.07467,-0.05867 -0.04267,-0.016 -0.106666,-0.016 h -0.992 q -0.112,0 -0.192,-0.07467 -0.07467,-0.08 -0.07467,-0.192 0,-0.112 0.07467,-0.192 0.08,-0.08 0.192,-0.08 h 0.992 q 0.325333,0 0.554666,0.229334 0.234667,0.224 0.245333,0.543999 l 0.06933,1.989332 q 0,0.112 -0.08533,0.192 -0.08,0.07467 -0.192,0.07467 -0.106666,0 -0.186666,-0.08 -0.07467,-0.08 -0.07467,-0.186667 l -0.394666,0.229334 Q 22.983989,40 22.90399,40 H 22.109323 Q 21.78399,40 21.549324,39.765333 21.314657,39.530667 21.314657,39.2 Z m 0.538666,0 q 0,0.106667 0.07467,0.186667 0.07467,0.07467 0.181333,0.07467 h 0.72 l 0.570666,-0.336 V 38.89067 q 0,-0.096 -0.08533,-0.170666 -0.08,-0.08 -0.176,-0.08 h -1.029333 q -0.101333,0 -0.181333,0.08 -0.07467,0.07467 -0.07467,0.181333 z m 3.578663,0.528 q 0,-0.106666 0.08,-0.186666 0.08,-0.08 0.192,-0.08 h 0.522666 v -3.082665 h -0.522666 q -0.112,0 -0.192,-0.08 -0.08,-0.08 -0.08,-0.192 0,-0.106667 0.08,-0.186667 0.08,-0.08 0.192,-0.08 h 0.794666 q 0.106667,0 0.186667,0.08 0.08,0.08 0.08,0.186667 v 3.354665 h 0.522666 q 0.112,0 0.192,0.08 0.08,0.08 0.08,0.186666 0,0.112 -0.08,0.192 -0.08,0.08 -0.192,0.08 h -1.583999 q -0.112,0 -0.192,-0.08 -0.08,-0.08 -0.08,-0.192 z m 3.855995,0 q 0,-0.106666 0.08,-0.186666 0.08,-0.08 0.192,-0.08 h 0.522666 v -3.082665 h -0.522666 q -0.112,0 -0.192,-0.08 -0.08,-0.08 -0.08,-0.192 0,-0.106667 0.08,-0.186667 0.08,-0.08 0.192,-0.08 h 0.794666 q 0.106667,0 0.186667,0.08 0.08,0.08 0.08,0.186667 v 3.354665 h 0.522666 q 0.112,0 0.192,0.08 0.08,0.08 0.08,0.186666 0,0.112 -0.08,0.192 -0.08,0.08 -0.192,0.08 h -1.583999 q -0.112,0 -0.192,-0.08 -0.08,-0.08 -0.08,-0.192 z m 7.450658,0 q 0,-0.106666 0.07467,-0.186666 0.08,-0.08 0.192,-0.08 h 0.261333 v -3.082665 h -0.261333 q -0.112,0 -0.192,-0.08 -0.07467,-0.08 -0.07467,-0.192 0,-0.106667 0.07467,-0.186667 0.08,-0.08 0.192,-0.08 h 0.991999 q 0.234667,0 0.426667,0.128 0.197333,0.128 0.293333,0.32 l 0.543999,1.082666 q 0.133334,0.277333 0.133334,0.549333 0,0.272 -0.133334,0.549333 l -0.538666,1.088 q -0.08533,0.191999 -0.288,0.319999 Q 38.237305,40 37.997305,40 h -0.991999 q -0.112,0 -0.192,-0.08 -0.07467,-0.08 -0.07467,-0.192 z m 1.066666,-0.266666 h 0.192 q 0.165333,0 0.234667,-0.149334 l 0.549333,-1.082666 q 0.07467,-0.181333 0.07467,-0.309333 0,-0.128 -0.07467,-0.309333 l -0.549333,-1.082666 q -0.06933,-0.149333 -0.234667,-0.149333 h -0.192 z m 2.789329,-0.426667 v -1.098666 q 0,-0.186666 0.08533,-0.346666 0.08533,-0.16 0.154666,-0.224 0.06933,-0.064 0.234667,-0.202667 0.218666,-0.192 0.517333,-0.192 h 0.66667 q 0.05333,0 0.101333,0.0053 0.05333,0.0053 0.106667,0.02133 0.05333,0.016 0.08533,0.02667 0.032,0.01067 0.08533,0.04267 0.05333,0.032 0.06933,0.04267 0.02133,0.01067 0.07467,0.05867 0.05333,0.04267 0.064,0.048 0.01067,0.0053 0.06933,0.05867 l 0.05867,0.05333 q 0.282667,0.245333 0.282667,0.607999 v 0.661333 q 0,0.112 -0.08,0.192 -0.08,0.08 -0.192,0.08 h -1.845332 v 0.165333 q 0,0.064 0.032,0.122667 0.032,0.05867 0.064,0.09067 0.03733,0.032 0.101333,0.08533 0.064,0.048 0.08533,0.064 0.08,0.064 0.170667,0.064 h 1.391999 q 0.112,0 0.192,0.08 0.08,0.08 0.08,0.186666 0,0.112 -0.08,0.192 -0.08,0.08 -0.192,0.08 h -1.391999 q -0.08533,0 -0.165333,-0.016 -0.07467,-0.02133 -0.128,-0.03733 -0.05333,-0.02133 -0.128,-0.06933 -0.06933,-0.048 -0.101333,-0.06933 -0.02667,-0.02133 -0.101334,-0.08533 -0.06933,-0.064 -0.09067,-0.08 -0.277334,-0.250667 -0.277334,-0.608 z m 0.538667,-0.703999 h 1.578666 v -0.394667 q 0,-0.138666 -0.16,-0.282666 -0.16,-0.144 -0.298667,-0.144 h -0.666666 q -0.07467,0 -0.133333,0.032 -0.05867,0.032 -0.138667,0.112 -0.08,0.08 -0.09067,0.08533 -0.09067,0.07467 -0.09067,0.197333 z m 3.317329,-0.634667 v -0.453333 q 0,-0.112 0.07467,-0.192 0.08,-0.08 0.192,-0.08 0.112,0 0.192,0.08 0.08,0.08 0.08,0.192 v 0.394667 l 0.784,1.807999 0.794666,-1.807999 v -0.394667 q 0,-0.112 0.07467,-0.192 0.08,-0.08 0.192,-0.08 0.112,0 0.192,0.08 0.08,0.08 0.08,0.192 v 0.453333 q 0,0.05333 -0.02667,0.106667 L 46.189295,39.84 Q 46.119962,40 45.943962,40 h -0.336 q -0.176,0 -0.245333,-0.16 l -0.890666,-2.037332 q -0.02133,-0.04267 -0.02133,-0.106667 z M 48.56796,39.728 q 0,-0.106666 0.08,-0.186666 0.08,-0.08 0.192,-0.08 h 0.527999 V 37.509335 H 48.83996 q -0.112,0 -0.192,-0.07467 -0.08,-0.08 -0.08,-0.192 0,-0.112 0.08,-0.192 0.08,-0.08 0.192,-0.08 h 0.794666 q 0.106667,0 0.186666,0.08 0.08,0.08 0.08,0.192 v 2.218666 h 0.522667 q 0.112,0 0.192,0.08 0.08,0.08 0.08,0.186666 0,0.112 -0.08,0.192 -0.08,0.08 -0.192,0.08 H 48.83996 q -0.112,0 -0.192,-0.08 -0.08,-0.08 -0.08,-0.192 z m 0.528,-3.621331 v -0.224 q 0,-0.112 0.08,-0.186666 0.08,-0.08 0.191999,-0.08 h 0.266667 q 0.106667,0 0.186666,0.08 0.08,0.07467 0.08,0.186666 v 0.224 q 0,0.112 -0.08,0.192 -0.08,0.08 -0.186666,0.08 h -0.266667 q -0.112,0 -0.191999,-0.08 -0.08,-0.08 -0.08,-0.192 z m 3.066662,2.698665 v -0.64 q 0,-0.383999 0.277333,-0.607999 0.048,-0.04267 0.192,-0.176 0.144,-0.138667 0.224,-0.208 0.08533,-0.06933 0.24,-0.133333 0.16,-0.06933 0.325333,-0.06933 h 1.125332 q 0.112,0 0.192,0.08 0.08,0.08 0.08,0.192 0,0.112 -0.08,0.192 -0.08,0.07467 -0.192,0.07467 h -1.125332 q -0.106667,0 -0.170667,0.064 l -0.458666,0.394666 q -0.09067,0.05867 -0.09067,0.197333 v 0.64 q 0,0.122667 0.09067,0.202667 l 0.458666,0.389333 q 0.064,0.064 0.170667,0.064 h 1.125332 q 0.112,0 0.192,0.08 0.08,0.08 0.08,0.186666 0,0.112 -0.08,0.192 -0.08,0.08 -0.192,0.08 h -1.125332 q -0.304,0 -0.522667,-0.192 l -0.458666,-0.394666 q -0.277333,-0.24 -0.277333,-0.608 z m 3.855995,0.229333 v -1.098666 q 0,-0.186666 0.08533,-0.346666 0.08533,-0.16 0.154667,-0.224 0.06933,-0.064 0.234666,-0.202667 0.218667,-0.192 0.517333,-0.192 h 0.666667 q 0.05333,0 0.101333,0.0053 0.05333,0.0053 0.106667,0.02133 0.05333,0.016 0.08533,0.02667 0.032,0.01067 0.08533,0.04267 0.05333,0.032 0.06933,0.04267 0.02133,0.01067 0.07467,0.05867 0.05333,0.04267 0.064,0.048 0.01067,0.0053 0.06933,0.05867 l 0.05867,0.05333 q 0.282666,0.245333 0.282666,0.607999 v 0.661333 q 0,0.112 -0.08,0.192 -0.08,0.08 -0.192,0.08 h -1.845333 v 0.165333 q 0,0.064 0.032,0.122667 0.032,0.05867 0.064,0.09067 0.03733,0.032 0.101334,0.08533 0.064,0.048 0.08533,0.064 0.08,0.064 0.170666,0.064 h 1.392 q 0.112,0 0.192,0.08 0.08,0.08 0.08,0.186666 0,0.112 -0.08,0.192 -0.08,0.08 -0.192,0.08 h -1.392 q -0.08533,0 -0.165333,-0.016 -0.07467,-0.02133 -0.128,-0.03733 -0.05333,-0.02133 -0.128,-0.06933 -0.06933,-0.048 -0.101333,-0.06933 -0.02667,-0.02133 -0.101333,-0.08533 -0.06933,-0.064 -0.09067,-0.08 -0.277333,-0.250667 -0.277333,-0.608 z m 0.538666,-0.703999 h 1.578666 v -0.394667 q 0,-0.138666 -0.16,-0.282666 -0.16,-0.144 -0.298666,-0.144 h -0.666667 q -0.07467,0 -0.133333,0.032 -0.05867,0.032 -0.138666,0.112 -0.08,0.08 -0.09067,0.08533 -0.09067,0.07467 -0.09067,0.197333 z" />
    <path id="CCompiler" d="m 13.602666,42.920001 q 0,-0.282666 0.128,-0.549333 l 0.538667,-1.087999 q 0.08533,-0.192 0.282666,-0.314667 0.202667,-0.128 0.442666,-0.128 h 0.992 q 0.112,0 0.192,0.08 0.08,0.08 0.08,0.186667 0,0.112 -0.08,0.192 -0.08,0.08 -0.192,0.08 h -0.992 q -0.165333,0 -0.234666,0.149333 l -0.549333,1.082666 q -0.06933,0.149333 -0.06933,0.309333 0,0.16 0.06933,0.309333 L 14.759999,44.312 q 0.06933,0.149334 0.234666,0.149334 h 0.992 q 0.112,0 0.192,0.08 0.08,0.08 0.08,0.186666 0,0.112 -0.08,0.192 -0.08,0.08 -0.192,0.08 h -0.992 q -0.234666,0 -0.431999,-0.128 -0.192,-0.128 -0.288,-0.32 -0.394667,-0.751999 -0.544,-1.082666 -0.128,-0.272 -0.128,-0.549333 z m 7.711991,0 q 0,-0.282666 0.128,-0.549333 l 0.538666,-1.087999 q 0.08533,-0.192 0.282667,-0.314667 0.202666,-0.128 0.442666,-0.128 h 0.992 q 0.112,0 0.192,0.08 0.08,0.08 0.08,0.186667 0,0.112 -0.08,0.192 -0.08,0.08 -0.192,0.08 h -0.992 q -0.165333,0 -0.234666,0.149333 l -0.549333,1.082666 q -0.06933,0.149333 -0.06933,0.309333 0,0.16 0.06933,0.309333 L 22.47199,44.312 q 0.06933,0.149334 0.234666,0.149334 h 0.992 q 0.112,0 0.192,0.08 0.08,0.08 0.08,0.186666 0,0.112 -0.08,0.192 -0.08,0.08 -0.192,0.08 h -0.992 q -0.234666,0 -0.431999,-0.128 -0.192,-0.128 -0.288,-0.32 -0.394667,-0.751999 -0.544,-1.082666 -0.128,-0.272 -0.128,-0.549333 z m 3.855996,1.114666 v -1.098666 q 0,-0.186666 0.08533,-0.346666 0.08533,-0.16 0.154667,-0.224 0.06933,-0.064 0.234666,-0.202667 0.218667,-0.192 0.517333,-0.192 h 0.666666 q 0.06933,0 0.133334,0.01067 0.064,0.0053 0.128,0.03733 0.064,0.02667 0.101333,0.04267 0.03733,0.01067 0.101333,0.064 0.064,0.048 0.08,0.064 0.02133,0.01067 0.09067,0.07467 0.07467,0.05867 0.08,0.064 0.282666,0.245333 0.282666,0.607999 v 1.098666 q 0,0.144 -0.03733,0.256 -0.032,0.112 -0.128,0.224 -0.096,0.106667 -0.138667,0.144 -0.03733,0.032 -0.176,0.149333 Q 27.138652,45 26.829318,45 h -0.666666 q -0.08533,0 -0.165333,-0.016 -0.07467,-0.02133 -0.128,-0.03733 -0.05333,-0.02133 -0.128,-0.06933 -0.06933,-0.048 -0.101333,-0.06933 -0.02667,-0.02133 -0.101333,-0.08533 -0.06933,-0.064 -0.09067,-0.08 -0.277333,-0.229333 -0.277333,-0.608 z m 0.538666,0 q 0,0.064 0.032,0.122667 0.032,0.05867 0.064,0.09067 0.03733,0.032 0.101333,0.08533 0.064,0.048 0.08533,0.064 0.08,0.064 0.170666,0.064 h 0.666666 q 0.07467,0 0.133334,-0.032 0.05867,-0.032 0.138666,-0.112 0.08,-0.08 0.09067,-0.08533 0.096,-0.07467 0.096,-0.197333 v -1.098666 q 0,-0.138666 -0.16,-0.282666 -0.16,-0.144 -0.298667,-0.144 h -0.666666 q -0.07467,0 -0.133333,0.032 -0.05867,0.032 -0.138667,0.112 -0.08,0.08 -0.09067,0.08533 -0.09067,0.07467 -0.09067,0.197333 z M 28.983981,44.728 v -2.485332 q 0,-0.112 0.07467,-0.192 0.08,-0.08 0.192,-0.08 0.08533,0 0.154666,0.05333 0.07467,0.05333 0.101334,0.133333 0.218666,-0.186667 0.458666,-0.186667 0.325333,0 0.517333,0.256 l 0.117333,-0.096 q 0.176,-0.144 0.4,-0.144 0.250667,0 0.442667,0.176 0.191999,0.176 0.197333,0.426667 l 0.08,2.138665 q 0,0.112 -0.08,0.192 -0.07467,0.08 -0.186667,0.08 -0.106666,0 -0.186666,-0.07467 -0.08,-0.08 -0.08533,-0.186666 l -0.07467,-2.127999 q -0.01067,-0.101333 -0.09067,-0.101333 h -0.032 l -0.362666,0.309333 V 44.728 q 0,0.112 -0.08,0.192 -0.08,0.08 -0.186667,0.08 -0.112,0 -0.192,-0.08 -0.08,-0.08 -0.08,-0.192 v -2.101332 q 0,-0.117333 -0.117333,-0.117333 h -0.04267 l -0.399999,0.346666 V 44.728 q 0,0.112 -0.08,0.192 -0.08,0.08 -0.192,0.08 -0.112,0 -0.192,-0.08 -0.07467,-0.08 -0.07467,-0.192 z m 3.898663,1.135999 v -3.738664 q 0,-0.106667 0.07467,-0.186667 0.08,-0.08 0.192,-0.08 0.112,0 0.191999,0.08 0.08,0.08 0.08,0.186667 v 0.144 q 0.01067,-0.01067 0.05867,-0.064 0.05333,-0.05333 0.06933,-0.064 0.016,-0.016 0.064,-0.05867 0.048,-0.048 0.07467,-0.064 0.02667,-0.016 0.07467,-0.048 0.048,-0.03733 0.08533,-0.048 0.04267,-0.016 0.09067,-0.032 0.05333,-0.02133 0.106667,-0.02667 0.05867,-0.0053 0.117333,-0.0053 h 0.112 q 0.224,0 0.384,0.096 0.165333,0.096 0.341333,0.266667 0.02133,0.016 0.101333,0.08533 0.08533,0.06933 0.112,0.101334 0.032,0.02667 0.096,0.096 0.06933,0.064 0.096,0.112 0.02667,0.048 0.064,0.122667 0.04267,0.06933 0.05333,0.149333 0.016,0.08 0.016,0.170667 v 0.858666 q 0,0.384 -0.282667,0.608 L 34.79731,44.92 q -0.218667,0.192 -0.522667,0.192 h -0.112 q -0.165333,0 -0.314666,-0.064 -0.144,-0.064 -0.229333,-0.138667 Q 33.53331,44.834667 33.42131,44.712 v 1.151999 q 0,0.112 -0.08,0.186667 -0.08,0.08 -0.191999,0.08 -0.112,0 -0.192,-0.08 -0.07467,-0.07467 -0.07467,-0.186667 z m 0.538666,-2.031998 q 0,0.064 0.02667,0.122666 0.02667,0.05333 0.05333,0.08533 0.02667,0.02667 0.08,0.07467 0.05867,0.048 0.07467,0.064 0.03733,0.03733 0.101333,0.106667 0.064,0.064 0.117334,0.117333 0.05333,0.05333 0.101333,0.096 0.07467,0.07467 0.186666,0.07467 h 0.112 q 0.106667,0 0.170667,-0.064 l 0.464,-0.394667 q 0.09067,-0.06933 0.09067,-0.197333 v -0.858666 q 0,-0.128 -0.09067,-0.197333 l -0.464,-0.4 q -0.064,-0.064 -0.170667,-0.064 h -0.112 q -0.112,0 -0.186666,0.07467 l -0.48,0.485333 q -0.07467,0.05867 -0.07467,0.181333 z M 36.999972,44.728 q 0,-0.106666 0.08,-0.186666 0.08,-0.08 0.192,-0.08 h 0.528 v -1.951999 h -0.528 q -0.112,0 -0.192,-0.07467 -0.08,-0.08 -0.08,-0.192 0,-0.112 0.08,-0.192 0.08,-0.08 0.192,-0.08 h 0.794666 q 0.106667,0 0.186667,0.08 0.08,0.08 0.08,0.192 v 2.218666 h 0.522666 q 0.112,0 0.192,0.08 0.08,0.08 0.08,0.186666 0,0.112 -0.08,0.192 -0.08,0.08 -0.192,0.08 h -1.583999 q -0.112,0 -0.192,-0.08 -0.08,-0.08 -0.08,-0.192 z m 0.528,-3.621331 v -0.224 q 0,-0.112 0.08,-0.186666 0.08,-0.08 0.192,-0.08 h 0.266666 q 0.106667,0 0.186667,0.08 0.08,0.07467 0.08,0.186666 v 0.224 q 0,0.112 -0.08,0.192 -0.08,0.08 -0.186667,0.08 h -0.266666 q -0.112,0 -0.192,-0.08 -0.08,-0.08 -0.08,-0.192 z M 40.855968,44.728 q 0,-0.106666 0.08,-0.186666 0.08,-0.08 0.191999,-0.08 h 0.522667 v -3.082665 h -0.522667 q -0.111999,0 -0.191999,-0.08 -0.08,-0.08 -0.08,-0.192 0,-0.106667 0.08,-0.186667 0.08,-0.08 0.191999,-0.08 h 0.794667 q 0.106666,0 0.186666,0.08 0.08,0.08 0.08,0.186667 v 3.354665 h 0.522667 q 0.111999,0 0.191999,0.08 0.08,0.08 0.08,0.186666 0,0.112 -0.08,0.192 -0.08,0.08 -0.191999,0.08 h -1.584 q -0.111999,0 -0.191999,-0.08 -0.08,-0.08 -0.08,-0.192 z m 3.594662,-0.693333 v -1.098666 q 0,-0.186666 0.08533,-0.346666 0.08533,-0.16 0.154666,-0.224 0.06933,-0.064 0.234667,-0.202667 0.218667,-0.192 0.517333,-0.192 h 0.666666 q 0.05333,0 0.101334,0.0053 0.05333,0.0053 0.106666,0.02133 0.05333,0.016 0.08533,0.02667 0.032,0.01067 0.08533,0.04267 0.05333,0.032 0.06933,0.04267 0.02133,0.01067 0.07467,0.05867 0.05333,0.04267 0.064,0.048 0.01067,0.0053 0.06933,0.05867 l 0.05867,0.05333 q 0.282666,0.245333 0.282666,0.607999 v 0.661333 q 0,0.112 -0.08,0.192 -0.08,0.08 -0.192,0.08 h -1.845332 v 0.165333 q 0,0.064 0.032,0.122667 0.032,0.05867 0.064,0.09067 0.03733,0.032 0.101333,0.08533 0.064,0.048 0.08533,0.064 0.08,0.064 0.170667,0.064 h 1.391999 q 0.112,0 0.192,0.08 0.08,0.08 0.08,0.186666 0,0.112 -0.08,0.192 -0.08,0.08 -0.192,0.08 h -1.391999 q -0.08533,0 -0.165333,-0.016 -0.07467,-0.02133 -0.128,-0.03733 -0.05333,-0.02133 -0.128,-0.06933 -0.06933,-0.048 -0.101333,-0.06933 -0.02667,-0.02133 -0.101334,-0.08533 -0.06933,-0.064 -0.09067,-0.08 -0.277333,-0.250667 -0.277333,-0.608 z m 0.538666,-0.703999 h 1.578666 v -0.394667 q 0,-0.138666 -0.16,-0.282666 -0.16,-0.144 -0.298667,-0.144 h -0.666666 q -0.07467,0 -0.133333,0.032 -0.05867,0.032 -0.138667,0.112 -0.08,0.08 -0.09067,0.08533 -0.09067,0.07467 -0.09067,0.197333 z M 48.306627,44.728 v -2.485332 q 0,-0.112 0.07467,-0.192 0.08,-0.08 0.192,-0.08 0.112,0 0.192,0.08 0.08,0.08 0.08,0.192 v 0.314667 l 0.634666,-0.544 q 0.05867,-0.04267 0.154667,-0.04267 h 0.528 q 0.325333,0 0.559999,0.24 0.24,0.234667 0.24,0.56 v 0.149333 q 0,0.112 -0.08,0.192 -0.08,0.07467 -0.192,0.07467 -0.112,0 -0.192,-0.07467 -0.07467,-0.08 -0.07467,-0.192 v -0.149333 q 0,-0.106667 -0.08,-0.181333 -0.07467,-0.08 -0.181333,-0.08 h -0.432 l -0.885333,0.762666 V 44.728 q 0,0.112 -0.08,0.192 -0.08,0.08 -0.192,0.08 -0.112,0 -0.192,-0.08 -0.07467,-0.08 -0.07467,-0.192 z" />
  </defs>
  <pattern id="pat1" width="8" height="64" patternUnits="userSpaceOnUse" patternTransform="translate(-4,0)" style="stroke-linejoin:round">
    <!-- shadows -->
    <rect width="4" height="12" x="4" y="5" fill="url(#rg2)" />
    <rect width="4" height="12" x="4" y="49" fill="url(#rg2)" />
    <!-- 1 top & bottom row pin -->
    <rect width="4" height="12" rx="0.5" ry="0.5" x="2" y="4" style="fill:url(#lg3);stroke:url(#lg5)" />
    <rect width="4" height="12" rx="0.5" ry="0.5" x="2" y="48" style="fill:url(#lg4);stroke:url(#lg6)" />
  </pattern>
  <g style="stroke-linejoin:round">
    <!-- shadows -->
    <rect width="64" height="20" x="0" y="38" fill="url(#rg2)" />
    <rect width="4" height="35" x="60" y="15" fill="url(#rg2)" />
    <!-- pins and chip body -->
    <rect width="56" height="64" x="4" fill="url(#pat1)" />
    <rect width="60" height="32" rx="2" ry="2" x="2" y="16" style="stroke-width:2;fill:url(#rg1);stroke:url(#lg2)" />
  </g>
  <g>
    <use x="0.5" y="0.5" href="#SDCC" />
    <use x="-0.25" y="-0.25" style="fill:#ff80ff" href="#SDCC" />
    <use style="fill:#800080" href="#SDCC" />
  </g>
  <g>
    <use x="0.2" y="0.2" style="fill:#c0c0c0" href="#SmallDevice" />
    <use href="#SmallDevice" />
    <use x="0.2" y="0.2" style="fill:#c0c0c0" href="#CCompiler" />
    <use href="#CCompiler" />
  </g>
  <circle cx="8" cy="42" r="2" style="fill:none;stroke:url(#lg1);stroke-width:0.75" />
</svg>
